<svg xmlns="http://www.w3.org/2000/svg" viewBox="0 0 512 512">
  <rect width="512" height="512" rx="112" fill="#142a23"/>
  <rect x="24" y="24" width="464" height="464" rx="96" fill="none" stroke="#687e74" stroke-width="12"/>
  <path d="M122 367c57 41 115 37 161-1 37-30 40-80 10-101-24-17-56-8-64 13-7 18 5 39 27 40 28 1 41-27 34-48" fill="none" stroke="#b4c6bc" stroke-width="23" stroke-linecap="round"/>
  <path d="M172 371 364 116c13-17 38-23 53-11 16 13 15 37 2 55L231 413" fill="#aabdb2" stroke="#dfeae2" stroke-width="9" stroke-linejoin="round"/>
  <ellipse cx="384" cy="145" rx="11" ry="21" transform="rotate(39 384 145)" fill="#142a23"/>
</svg>
